<svg width="1268" height="434" viewBox="0 0 1268 434" fill="none" xmlns="http://www.w3.org/2000/svg">
<path d="M620.595 143.625V210.9C612.162 217.11 603.153 221.672 593.57 224.585C584.063 227.422 573.867 228.84 562.98 228.84C549.41 228.84 537.105 226.732 526.065 222.515C515.102 218.298 505.71 212.433 497.89 204.92C490.147 197.407 484.167 188.437 479.95 178.01C475.733 167.583 473.625 156.198 473.625 143.855C473.625 131.358 475.657 119.897 479.72 109.47C483.783 99.0433 489.533 90.0733 496.97 82.56C504.483 75.0467 513.568 69.22 524.225 65.08C534.882 60.94 546.842 58.87 560.105 58.87C566.852 58.87 573.138 59.4067 578.965 60.48C584.868 61.5533 590.312 63.0483 595.295 64.965C600.355 66.805 604.955 69.0667 609.095 71.75C613.235 74.4333 617.03 77.385 620.48 80.605L611.625 94.635C610.245 96.8583 608.443 98.2383 606.22 98.775C603.997 99.235 601.582 98.66 598.975 97.05C596.445 95.5933 593.915 94.1367 591.385 92.68C588.855 91.2233 586.018 89.9583 582.875 88.885C579.808 87.8117 576.32 86.93 572.41 86.24C568.577 85.55 564.13 85.205 559.07 85.205C550.867 85.205 543.43 86.585 536.76 89.345C530.167 92.105 524.532 96.0533 519.855 101.19C515.178 106.327 511.575 112.498 509.045 119.705C506.515 126.912 505.25 134.962 505.25 143.855C505.25 153.362 506.592 161.872 509.275 169.385C512.035 176.822 515.868 183.147 520.775 188.36C525.758 193.497 531.738 197.445 538.715 200.205C545.692 202.888 553.473 204.23 562.06 204.23C568.193 204.23 573.675 203.578 578.505 202.275C583.335 200.972 588.05 199.208 592.65 196.985V166.855H571.72C569.727 166.855 568.155 166.318 567.005 165.245C565.932 164.095 565.395 162.715 565.395 161.105V143.625H620.595ZM690.65 227H659.6V60.71H690.65V227ZM877.266 60.71V227H861.396C858.943 227 856.873 226.617 855.186 225.85C853.576 225.007 852.004 223.627 850.471 221.71L763.646 110.85C764.106 115.91 764.336 120.587 764.336 124.88V227H737.081V60.71H753.296C754.599 60.71 755.711 60.7867 756.631 60.94C757.628 61.0167 758.471 61.2467 759.161 61.63C759.928 61.9367 760.656 62.435 761.346 63.125C762.036 63.7383 762.803 64.5817 763.646 65.655L850.816 176.975C850.586 174.292 850.394 171.647 850.241 169.04C850.088 166.433 850.011 164.018 850.011 161.795V60.71H877.266ZM1060.58 143.625V210.9C1052.14 217.11 1043.14 221.672 1033.55 224.585C1024.05 227.422 1013.85 228.84 1002.96 228.84C989.393 228.84 977.088 226.732 966.048 222.515C955.084 218.298 945.693 212.433 937.873 204.92C930.129 197.407 924.149 188.437 919.933 178.01C915.716 167.583 913.608 156.198 913.608 143.855C913.608 131.358 915.639 119.897 919.703 109.47C923.766 99.0433 929.516 90.0733 936.953 82.56C944.466 75.0467 953.551 69.22 964.208 65.08C974.864 60.94 986.824 58.87 1000.09 58.87C1006.83 58.87 1013.12 59.4067 1018.95 60.48C1024.85 61.5533 1030.29 63.0483 1035.28 64.965C1040.34 66.805 1044.94 69.0667 1049.08 71.75C1053.22 74.4333 1057.01 77.385 1060.46 80.605L1051.61 94.635C1050.23 96.8583 1048.43 98.2383 1046.2 98.775C1043.98 99.235 1041.56 98.66 1038.96 97.05C1036.43 95.5933 1033.9 94.1367 1031.37 92.68C1028.84 91.2233 1026 89.9583 1022.86 88.885C1019.79 87.8117 1016.3 86.93 1012.39 86.24C1008.56 85.55 1004.11 85.205 999.053 85.205C990.849 85.205 983.413 86.585 976.743 89.345C970.149 92.105 964.514 96.0533 959.838 101.19C955.161 106.327 951.558 112.498 949.028 119.705C946.498 126.912 945.233 134.962 945.233 143.855C945.233 153.362 946.574 161.872 949.258 169.385C952.018 176.822 955.851 183.147 960.758 188.36C965.741 193.497 971.721 197.445 978.698 200.205C985.674 202.888 993.456 204.23 1002.04 204.23C1008.18 204.23 1013.66 203.578 1018.49 202.275C1023.32 200.972 1028.03 199.208 1032.63 196.985V166.855H1011.7C1009.71 166.855 1008.14 166.318 1006.99 165.245C1005.91 164.095 1005.38 162.715 1005.38 161.105V143.625H1060.58ZM1149.84 139.83C1155.66 139.83 1160.72 139.102 1165.02 137.645C1169.39 136.188 1172.95 134.195 1175.71 131.665C1178.55 129.058 1180.66 125.992 1182.04 122.465C1183.42 118.938 1184.11 115.067 1184.11 110.85C1184.11 102.417 1181.31 95.9383 1175.71 91.415C1170.19 86.8917 1161.72 84.63 1150.3 84.63H1130.52V139.83H1149.84ZM1229.42 227H1201.47C1196.18 227 1192.35 224.93 1189.97 220.79L1155.01 167.545C1153.71 165.552 1152.25 164.133 1150.64 163.29C1149.11 162.447 1146.81 162.025 1143.74 162.025H1130.52V227H1099.58V60.71H1150.3C1161.57 60.71 1171.23 61.8983 1179.28 64.275C1187.4 66.575 1194.04 69.8333 1199.17 74.05C1204.39 78.2667 1208.22 83.3267 1210.67 89.23C1213.13 95.0567 1214.35 101.497 1214.35 108.55C1214.35 114.147 1213.51 119.437 1211.82 124.42C1210.21 129.403 1207.84 133.927 1204.69 137.99C1201.63 142.053 1197.79 145.618 1193.19 148.685C1188.67 151.752 1183.49 154.167 1177.67 155.93C1179.66 157.08 1181.5 158.46 1183.19 160.07C1184.87 161.603 1186.41 163.443 1187.79 165.59L1229.42 227Z" fill="white"/>
<path d="M514.104 300.952V318.552C511.8 320.216 509.336 321.464 506.712 322.296C504.109 323.107 501.251 323.512 498.136 323.512C494.445 323.512 491.117 322.947 488.152 321.816C485.187 320.664 482.648 319.064 480.536 317.016C478.445 314.947 476.835 312.472 475.704 309.592C474.573 306.712 474.008 303.544 474.008 300.088C474.008 296.589 474.552 293.4 475.64 290.52C476.749 287.64 478.317 285.176 480.344 283.128C482.371 281.059 484.835 279.459 487.736 278.328C490.637 277.197 493.88 276.632 497.464 276.632C499.277 276.632 500.963 276.771 502.52 277.048C504.077 277.304 505.517 277.688 506.84 278.2C508.163 278.691 509.389 279.299 510.52 280.024C511.651 280.728 512.707 281.528 513.688 282.424L511.928 285.24C511.651 285.667 511.288 285.944 510.84 286.072C510.413 286.179 509.933 286.072 509.4 285.752C508.888 285.453 508.301 285.091 507.64 284.664C506.979 284.237 506.168 283.832 505.208 283.448C504.269 283.043 503.149 282.701 501.848 282.424C500.568 282.147 499.043 282.008 497.272 282.008C494.691 282.008 492.355 282.435 490.264 283.288C488.173 284.12 486.392 285.325 484.92 286.904C483.448 288.461 482.317 290.36 481.528 292.6C480.739 294.819 480.344 297.315 480.344 300.088C480.344 302.968 480.749 305.549 481.56 307.832C482.392 310.093 483.565 312.024 485.08 313.624C486.616 315.203 488.472 316.408 490.648 317.24C492.824 318.072 495.267 318.488 497.976 318.488C500.109 318.488 501.997 318.253 503.64 317.784C505.304 317.293 506.925 316.621 508.504 315.768V305.688H501.368C500.963 305.688 500.632 305.571 500.376 305.336C500.141 305.101 500.024 304.813 500.024 304.472V300.952H514.104ZM527.838 275.864V323H522.141V275.864H527.838ZM550.739 290.072C553.107 290.072 555.24 290.467 557.139 291.256C559.037 292.045 560.659 293.165 562.003 294.616C563.347 296.067 564.371 297.827 565.075 299.896C565.8 301.944 566.163 304.237 566.163 306.776C566.163 309.336 565.8 311.64 565.075 313.688C564.371 315.736 563.347 317.485 562.003 318.936C560.659 320.387 559.037 321.507 557.139 322.296C555.24 323.064 553.107 323.448 550.739 323.448C548.349 323.448 546.195 323.064 544.275 322.296C542.376 321.507 540.755 320.387 539.411 318.936C538.067 317.485 537.032 315.736 536.307 313.688C535.603 311.64 535.251 309.336 535.251 306.776C535.251 304.237 535.603 301.944 536.307 299.896C537.032 297.827 538.067 296.067 539.411 294.616C540.755 293.165 542.376 292.045 544.275 291.256C546.195 290.467 548.349 290.072 550.739 290.072ZM550.739 319C553.939 319 556.328 317.933 557.907 315.8C559.485 313.645 560.275 310.648 560.275 306.808C560.275 302.947 559.485 299.939 557.907 297.784C556.328 295.629 553.939 294.552 550.739 294.552C549.117 294.552 547.699 294.829 546.483 295.384C545.288 295.939 544.285 296.739 543.475 297.784C542.685 298.829 542.088 300.12 541.683 301.656C541.299 303.171 541.107 304.888 541.107 306.808C541.107 310.648 541.896 313.645 543.475 315.8C545.075 317.933 547.496 319 550.739 319ZM579.115 315.192C580.16 316.6 581.302 317.592 582.539 318.168C583.798 318.744 585.174 319.032 586.667 319.032C589.718 319.032 592.054 317.955 593.675 315.8C595.296 313.645 596.107 310.435 596.107 306.168C596.107 302.2 595.382 299.288 593.931 297.432C592.502 295.555 590.454 294.616 587.787 294.616C585.931 294.616 584.31 295.043 582.923 295.896C581.558 296.749 580.288 297.955 579.115 299.512V315.192ZM579.115 295.256C580.48 293.677 582.016 292.419 583.723 291.48C585.451 290.541 587.435 290.072 589.675 290.072C591.574 290.072 593.28 290.435 594.795 291.16C596.331 291.885 597.632 292.941 598.699 294.328C599.766 295.693 600.576 297.357 601.131 299.32C601.707 301.283 601.995 303.491 601.995 305.944C601.995 308.568 601.675 310.957 601.035 313.112C600.395 315.267 599.467 317.112 598.251 318.648C597.056 320.163 595.595 321.347 593.867 322.2C592.139 323.032 590.198 323.448 588.043 323.448C585.91 323.448 584.107 323.053 582.635 322.264C581.184 321.453 579.915 320.312 578.827 318.84L578.539 321.784C578.368 322.595 577.878 323 577.067 323H573.387V275.864H579.115V295.256ZM626.768 308.408C624.144 308.493 621.904 308.707 620.048 309.048C618.213 309.368 616.709 309.795 615.536 310.328C614.384 310.861 613.541 311.491 613.008 312.216C612.496 312.941 612.24 313.752 612.24 314.648C612.24 315.501 612.378 316.237 612.656 316.856C612.933 317.475 613.306 317.987 613.776 318.392C614.266 318.776 614.832 319.064 615.472 319.256C616.133 319.427 616.837 319.512 617.584 319.512C618.586 319.512 619.504 319.416 620.336 319.224C621.168 319.011 621.946 318.712 622.672 318.328C623.418 317.944 624.122 317.485 624.784 316.952C625.466 316.419 626.128 315.811 626.768 315.128V308.408ZM608.368 295.16C610.16 293.432 612.09 292.141 614.16 291.288C616.229 290.435 618.522 290.008 621.04 290.008C622.853 290.008 624.464 290.307 625.872 290.904C627.28 291.501 628.464 292.333 629.424 293.4C630.384 294.467 631.109 295.757 631.6 297.272C632.09 298.787 632.336 300.451 632.336 302.264V323H629.808C629.253 323 628.826 322.915 628.528 322.744C628.229 322.552 627.994 322.189 627.824 321.656L627.184 318.584C626.33 319.373 625.498 320.077 624.688 320.696C623.877 321.293 623.024 321.805 622.128 322.232C621.232 322.637 620.272 322.947 619.248 323.16C618.245 323.395 617.125 323.512 615.888 323.512C614.629 323.512 613.445 323.341 612.336 323C611.226 322.637 610.256 322.104 609.424 321.4C608.613 320.696 607.962 319.811 607.472 318.744C607.002 317.656 606.768 316.376 606.768 314.904C606.768 313.624 607.12 312.397 607.824 311.224C608.528 310.029 609.669 308.973 611.248 308.056C612.826 307.139 614.885 306.392 617.424 305.816C619.962 305.219 623.077 304.877 626.768 304.792V302.264C626.768 299.747 626.224 297.848 625.136 296.568C624.048 295.267 622.458 294.616 620.368 294.616C618.96 294.616 617.776 294.797 616.816 295.16C615.877 295.501 615.056 295.896 614.352 296.344C613.669 296.771 613.072 297.165 612.56 297.528C612.069 297.869 611.578 298.04 611.088 298.04C610.704 298.04 610.373 297.944 610.096 297.752C609.818 297.539 609.584 297.283 609.391 296.984L608.368 295.16ZM646.9 275.864V323H641.204V275.864H646.9ZM680.064 323H673.856V277.144H680.064V323ZM695.326 295.288C696.03 294.499 696.776 293.784 697.566 293.144C698.355 292.504 699.187 291.96 700.062 291.512C700.958 291.043 701.896 290.691 702.878 290.456C703.88 290.2 704.958 290.072 706.11 290.072C707.88 290.072 709.438 290.371 710.782 290.968C712.147 291.544 713.278 292.376 714.174 293.464C715.091 294.531 715.784 295.821 716.254 297.336C716.723 298.851 716.958 300.525 716.958 302.36V323H711.23V302.36C711.23 299.907 710.664 298.008 709.534 296.664C708.424 295.299 706.728 294.616 704.446 294.616C702.76 294.616 701.182 295.021 699.71 295.832C698.259 296.643 696.915 297.741 695.678 299.128V323H689.95V290.584H693.374C694.184 290.584 694.686 290.979 694.878 291.768L695.326 295.288ZM731.653 290.584V323H725.957V290.584H731.653ZM732.869 280.408C732.869 280.963 732.752 281.485 732.517 281.976C732.304 282.445 732.005 282.872 731.621 283.256C731.258 283.619 730.821 283.907 730.309 284.12C729.818 284.333 729.296 284.44 728.741 284.44C728.186 284.44 727.664 284.333 727.173 284.12C726.704 283.907 726.288 283.619 725.925 283.256C725.562 282.872 725.274 282.445 725.061 281.976C724.848 281.485 724.741 280.963 724.741 280.408C724.741 279.853 724.848 279.331 725.061 278.84C725.274 278.328 725.562 277.891 725.925 277.528C726.288 277.144 726.704 276.845 727.173 276.632C727.664 276.419 728.186 276.312 728.741 276.312C729.296 276.312 729.818 276.419 730.309 276.632C730.821 276.845 731.258 277.144 731.621 277.528C732.005 277.891 732.304 278.328 732.517 278.84C732.752 279.331 732.869 279.853 732.869 280.408ZM750.964 323.512C748.404 323.512 746.431 322.797 745.044 321.368C743.679 319.939 742.996 317.88 742.996 315.192V295.352H739.092C738.751 295.352 738.463 295.256 738.228 295.064C737.993 294.851 737.876 294.531 737.876 294.104V291.832L743.188 291.16L744.5 281.144C744.564 280.824 744.703 280.568 744.916 280.376C745.151 280.163 745.449 280.056 745.812 280.056H748.692V291.224H758.068V295.352H748.692V314.808C748.692 316.173 749.023 317.187 749.684 317.848C750.345 318.509 751.199 318.84 752.244 318.84C752.841 318.84 753.353 318.765 753.78 318.616C754.228 318.445 754.612 318.264 754.932 318.072C755.252 317.88 755.519 317.709 755.732 317.56C755.967 317.389 756.169 317.304 756.34 317.304C756.639 317.304 756.905 317.485 757.14 317.848L758.804 320.568C757.823 321.485 756.639 322.211 755.252 322.744C753.865 323.256 752.436 323.512 750.964 323.512ZM769.966 290.584V323H764.27V290.584H769.966ZM771.182 280.408C771.182 280.963 771.064 281.485 770.83 281.976C770.616 282.445 770.318 282.872 769.934 283.256C769.571 283.619 769.134 283.907 768.622 284.12C768.131 284.333 767.608 284.44 767.054 284.44C766.499 284.44 765.976 284.333 765.486 284.12C765.016 283.907 764.6 283.619 764.238 283.256C763.875 282.872 763.587 282.445 763.374 281.976C763.16 281.485 763.054 280.963 763.054 280.408C763.054 279.853 763.16 279.331 763.374 278.84C763.587 278.328 763.875 277.891 764.238 277.528C764.6 277.144 765.016 276.845 765.486 276.632C765.976 276.419 766.499 276.312 767.054 276.312C767.608 276.312 768.131 276.419 768.622 276.632C769.134 276.845 769.571 277.144 769.934 277.528C770.318 277.891 770.616 278.328 770.83 278.84C771.064 279.331 771.182 279.853 771.182 280.408ZM796.893 308.408C794.269 308.493 792.029 308.707 790.173 309.048C788.338 309.368 786.834 309.795 785.661 310.328C784.509 310.861 783.666 311.491 783.133 312.216C782.621 312.941 782.365 313.752 782.365 314.648C782.365 315.501 782.503 316.237 782.781 316.856C783.058 317.475 783.431 317.987 783.901 318.392C784.391 318.776 784.957 319.064 785.597 319.256C786.258 319.427 786.962 319.512 787.709 319.512C788.711 319.512 789.629 319.416 790.461 319.224C791.293 319.011 792.071 318.712 792.797 318.328C793.543 317.944 794.247 317.485 794.909 316.952C795.591 316.419 796.253 315.811 796.893 315.128V308.408ZM778.493 295.16C780.285 293.432 782.215 292.141 784.285 291.288C786.354 290.435 788.647 290.008 791.165 290.008C792.978 290.008 794.589 290.307 795.997 290.904C797.405 291.501 798.589 292.333 799.549 293.4C800.509 294.467 801.234 295.757 801.725 297.272C802.215 298.787 802.461 300.451 802.461 302.264V323H799.933C799.378 323 798.951 322.915 798.653 322.744C798.354 322.552 798.119 322.189 797.949 321.656L797.309 318.584C796.455 319.373 795.623 320.077 794.812 320.696C794.002 321.293 793.149 321.805 792.253 322.232C791.357 322.637 790.397 322.947 789.373 323.16C788.37 323.395 787.25 323.512 786.013 323.512C784.754 323.512 783.57 323.341 782.461 323C781.351 322.637 780.381 322.104 779.549 321.4C778.738 320.696 778.087 319.811 777.597 318.744C777.127 317.656 776.893 316.376 776.893 314.904C776.893 313.624 777.245 312.397 777.949 311.224C778.653 310.029 779.794 308.973 781.373 308.056C782.951 307.139 785.01 306.392 787.549 305.816C790.087 305.219 793.202 304.877 796.893 304.792V302.264C796.893 299.747 796.349 297.848 795.261 296.568C794.173 295.267 792.583 294.616 790.493 294.616C789.085 294.616 787.901 294.797 786.941 295.16C786.002 295.501 785.181 295.896 784.477 296.344C783.794 296.771 783.197 297.165 782.685 297.528C782.194 297.869 781.703 298.04 781.213 298.04C780.829 298.04 780.498 297.944 780.221 297.752C779.943 297.539 779.709 297.283 779.516 296.984L778.493 295.16ZM820.652 323.512C818.092 323.512 816.118 322.797 814.732 321.368C813.366 319.939 812.684 317.88 812.684 315.192V295.352H808.78C808.438 295.352 808.15 295.256 807.916 295.064C807.681 294.851 807.564 294.531 807.564 294.104V291.832L812.876 291.16L814.188 281.144C814.252 280.824 814.39 280.568 814.604 280.376C814.838 280.163 815.137 280.056 815.5 280.056H818.38V291.224H827.756V295.352H818.38V314.808C818.38 316.173 818.71 317.187 819.372 317.848C820.033 318.509 820.886 318.84 821.932 318.84C822.529 318.84 823.041 318.765 823.468 318.616C823.916 318.445 824.3 318.264 824.62 318.072C824.94 317.88 825.206 317.709 825.42 317.56C825.654 317.389 825.857 317.304 826.028 317.304C826.326 317.304 826.593 317.485 826.828 317.848L828.492 320.568C827.51 321.485 826.326 322.211 824.94 322.744C823.553 323.256 822.124 323.512 820.652 323.512ZM839.653 290.584V323H833.957V290.584H839.653ZM840.869 280.408C840.869 280.963 840.752 281.485 840.517 281.976C840.304 282.445 840.005 282.872 839.621 283.256C839.258 283.619 838.821 283.907 838.309 284.12C837.818 284.333 837.296 284.44 836.741 284.44C836.186 284.44 835.664 284.333 835.173 284.12C834.704 283.907 834.288 283.619 833.925 283.256C833.562 282.872 833.274 282.445 833.061 281.976C832.848 281.485 832.741 280.963 832.741 280.408C832.741 279.853 832.848 279.331 833.061 278.84C833.274 278.328 833.562 277.891 833.925 277.528C834.288 277.144 834.704 276.845 835.173 276.632C835.664 276.419 836.186 276.312 836.741 276.312C837.296 276.312 837.818 276.419 838.309 276.632C838.821 276.845 839.258 277.144 839.621 277.528C840.005 277.891 840.304 278.328 840.517 278.84C840.752 279.331 840.869 279.853 840.869 280.408ZM876.788 290.584L863.572 323H858.452L845.236 290.584H849.876C850.345 290.584 850.729 290.701 851.028 290.936C851.327 291.171 851.529 291.448 851.636 291.768L859.86 312.632C860.116 313.421 860.34 314.189 860.532 314.936C860.724 315.683 860.905 316.429 861.076 317.176C861.247 316.429 861.428 315.683 861.62 314.936C861.812 314.189 862.047 313.421 862.324 312.632L870.644 291.768C870.772 291.427 870.985 291.149 871.284 290.936C871.583 290.701 871.935 290.584 872.34 290.584H876.788ZM902.833 303.256C902.833 301.933 902.641 300.728 902.257 299.64C901.894 298.531 901.35 297.581 900.625 296.792C899.921 295.981 899.057 295.363 898.033 294.936C897.009 294.488 895.846 294.264 894.545 294.264C891.814 294.264 889.649 295.064 888.049 296.664C886.47 298.243 885.489 300.44 885.105 303.256H902.833ZM907.441 318.456C906.737 319.309 905.894 320.056 904.913 320.696C903.932 321.315 902.876 321.827 901.745 322.232C900.636 322.637 899.484 322.936 898.289 323.128C897.094 323.341 895.91 323.448 894.737 323.448C892.497 323.448 890.428 323.075 888.529 322.328C886.652 321.56 885.02 320.451 883.633 319C882.268 317.528 881.201 315.715 880.433 313.56C879.665 311.405 879.281 308.931 879.281 306.136C879.281 303.875 879.622 301.763 880.305 299.8C881.009 297.837 882.012 296.141 883.313 294.712C884.614 293.261 886.204 292.131 888.081 291.32C889.958 290.488 892.07 290.072 894.417 290.072C896.358 290.072 898.15 290.403 899.793 291.064C901.457 291.704 902.886 292.643 904.081 293.88C905.297 295.096 906.246 296.611 906.929 298.424C907.612 300.216 907.953 302.264 907.953 304.568C907.953 305.464 907.857 306.061 907.665 306.36C907.473 306.659 907.11 306.808 906.577 306.808H884.913C884.977 308.856 885.254 310.637 885.745 312.152C886.257 313.667 886.961 314.936 887.857 315.96C888.753 316.963 889.82 317.72 891.057 318.232C892.294 318.723 893.681 318.968 895.217 318.968C896.646 318.968 897.873 318.808 898.897 318.488C899.942 318.147 900.838 317.784 901.585 317.4C902.332 317.016 902.95 316.664 903.441 316.344C903.953 316.003 904.39 315.832 904.753 315.832C905.222 315.832 905.585 316.013 905.841 316.376L907.441 318.456ZM933.437 323V295.448L929.853 295.032C929.405 294.925 929.031 294.765 928.733 294.552C928.455 294.317 928.317 293.987 928.317 293.56V291.224H933.437V288.088C933.437 286.232 933.693 284.589 934.205 283.16C934.738 281.709 935.485 280.493 936.445 279.512C937.426 278.509 938.599 277.752 939.965 277.24C941.33 276.728 942.866 276.472 944.573 276.472C946.023 276.472 947.357 276.685 948.573 277.112L948.445 279.96C948.402 280.472 948.114 280.749 947.581 280.792C947.069 280.835 946.375 280.856 945.501 280.856C944.519 280.856 943.623 280.984 942.812 281.24C942.023 281.496 941.341 281.912 940.765 282.488C940.189 283.064 939.741 283.821 939.421 284.76C939.122 285.699 938.973 286.861 938.973 288.248V291.224H948.317V295.352H939.165V323H933.437ZM966.364 290.072C968.732 290.072 970.865 290.467 972.764 291.256C974.662 292.045 976.284 293.165 977.628 294.616C978.972 296.067 979.996 297.827 980.7 299.896C981.425 301.944 981.788 304.237 981.788 306.776C981.788 309.336 981.425 311.64 980.7 313.688C979.996 315.736 978.972 317.485 977.628 318.936C976.284 320.387 974.662 321.507 972.764 322.296C970.865 323.064 968.732 323.448 966.364 323.448C963.974 323.448 961.82 323.064 959.9 322.296C958.001 321.507 956.38 320.387 955.036 318.936C953.692 317.485 952.657 315.736 951.932 313.688C951.228 311.64 950.876 309.336 950.876 306.776C950.876 304.237 951.228 301.944 951.932 299.896C952.657 297.827 953.692 296.067 955.036 294.616C956.38 293.165 958.001 292.045 959.9 291.256C961.82 290.467 963.974 290.072 966.364 290.072ZM966.364 319C969.564 319 971.953 317.933 973.532 315.8C975.11 313.645 975.9 310.648 975.9 306.808C975.9 302.947 975.11 299.939 973.532 297.784C971.953 295.629 969.564 294.552 966.364 294.552C964.742 294.552 963.324 294.829 962.108 295.384C960.913 295.939 959.91 296.739 959.1 297.784C958.31 298.829 957.713 300.12 957.308 301.656C956.924 303.171 956.732 304.888 956.732 306.808C956.732 310.648 957.521 313.645 959.1 315.8C960.7 317.933 963.121 319 966.364 319ZM994.42 297.08C995.444 294.861 996.703 293.133 998.196 291.896C999.689 290.637 1001.51 290.008 1003.67 290.008C1004.35 290.008 1005 290.083 1005.62 290.232C1006.26 290.381 1006.83 290.616 1007.32 290.936L1006.9 295.192C1006.77 295.725 1006.45 295.992 1005.94 295.992C1005.64 295.992 1005.2 295.928 1004.63 295.8C1004.05 295.672 1003.4 295.608 1002.68 295.608C1001.65 295.608 1000.73 295.757 999.924 296.056C999.135 296.355 998.42 296.803 997.78 297.4C997.161 297.976 996.596 298.701 996.084 299.576C995.593 300.429 995.145 301.411 994.74 302.52V323H989.012V290.584H992.276C992.895 290.584 993.321 290.701 993.556 290.936C993.791 291.171 993.951 291.576 994.036 292.152L994.42 297.08ZM1065.82 277.144V323H1062.72C1062.23 323 1061.81 322.915 1061.47 322.744C1061.15 322.573 1060.83 322.285 1060.51 321.88L1033.98 287.32C1034.02 287.853 1034.06 288.376 1034.08 288.888C1034.1 289.4 1034.11 289.88 1034.11 290.328V323H1028.67V277.144H1031.87C1032.15 277.144 1032.38 277.165 1032.57 277.208C1032.76 277.229 1032.94 277.283 1033.08 277.368C1033.23 277.432 1033.38 277.539 1033.53 277.688C1033.68 277.816 1033.84 277.987 1034.01 278.2L1060.54 312.728C1060.5 312.173 1060.46 311.64 1060.41 311.128C1060.39 310.595 1060.38 310.093 1060.38 309.624V277.144H1065.82ZM1092.83 308.408C1090.21 308.493 1087.97 308.707 1086.11 309.048C1084.28 309.368 1082.77 309.795 1081.6 310.328C1080.45 310.861 1079.6 311.491 1079.07 312.216C1078.56 312.941 1078.3 313.752 1078.3 314.648C1078.3 315.501 1078.44 316.237 1078.72 316.856C1079 317.475 1079.37 317.987 1079.84 318.392C1080.33 318.776 1080.89 319.064 1081.53 319.256C1082.2 319.427 1082.9 319.512 1083.65 319.512C1084.65 319.512 1085.57 319.416 1086.4 319.224C1087.23 319.011 1088.01 318.712 1088.73 318.328C1089.48 317.944 1090.18 317.485 1090.85 316.952C1091.53 316.419 1092.19 315.811 1092.83 315.128V308.408ZM1074.43 295.16C1076.22 293.432 1078.15 292.141 1080.22 291.288C1082.29 290.435 1084.58 290.008 1087.1 290.008C1088.92 290.008 1090.53 290.307 1091.93 290.904C1093.34 291.501 1094.53 292.333 1095.49 293.4C1096.45 294.467 1097.17 295.757 1097.66 297.272C1098.15 298.787 1098.4 300.451 1098.4 302.264V323H1095.87C1095.32 323 1094.89 322.915 1094.59 322.744C1094.29 322.552 1094.06 322.189 1093.89 321.656L1093.25 318.584C1092.39 319.373 1091.56 320.077 1090.75 320.696C1089.94 321.293 1089.09 321.805 1088.19 322.232C1087.29 322.637 1086.33 322.947 1085.31 323.16C1084.31 323.395 1083.19 323.512 1081.95 323.512C1080.69 323.512 1079.51 323.341 1078.4 323C1077.29 322.637 1076.32 322.104 1075.49 321.4C1074.68 320.696 1074.02 319.811 1073.53 318.744C1073.06 317.656 1072.83 316.376 1072.83 314.904C1072.83 313.624 1073.18 312.397 1073.89 311.224C1074.59 310.029 1075.73 308.973 1077.31 308.056C1078.89 307.139 1080.95 306.392 1083.49 305.816C1086.02 305.219 1089.14 304.877 1092.83 304.792V302.264C1092.83 299.747 1092.29 297.848 1091.2 296.568C1090.11 295.267 1088.52 294.616 1086.43 294.616C1085.02 294.616 1083.84 294.797 1082.88 295.16C1081.94 295.501 1081.12 295.896 1080.41 296.344C1079.73 296.771 1079.13 297.165 1078.62 297.528C1078.13 297.869 1077.64 298.04 1077.15 298.04C1076.77 298.04 1076.44 297.944 1076.16 297.752C1075.88 297.539 1075.65 297.283 1075.45 296.984L1074.43 295.16ZM1116.59 323.512C1114.03 323.512 1112.06 322.797 1110.67 321.368C1109.3 319.939 1108.62 317.88 1108.62 315.192V295.352H1104.72C1104.38 295.352 1104.09 295.256 1103.85 295.064C1103.62 294.851 1103.5 294.531 1103.5 294.104V291.832L1108.81 291.16L1110.12 281.144C1110.19 280.824 1110.33 280.568 1110.54 280.376C1110.78 280.163 1111.07 280.056 1111.44 280.056H1114.32V291.224H1123.69V295.352H1114.32V314.808C1114.32 316.173 1114.65 317.187 1115.31 317.848C1115.97 318.509 1116.82 318.84 1117.87 318.84C1118.47 318.84 1118.98 318.765 1119.41 318.616C1119.85 318.445 1120.24 318.264 1120.56 318.072C1120.88 317.88 1121.14 317.709 1121.36 317.56C1121.59 317.389 1121.79 317.304 1121.97 317.304C1122.26 317.304 1122.53 317.485 1122.77 317.848L1124.43 320.568C1123.45 321.485 1122.26 322.211 1120.88 322.744C1119.49 323.256 1118.06 323.512 1116.59 323.512ZM1156.23 290.584V323H1152.84C1152.03 323 1151.52 322.605 1151.3 321.816L1150.85 318.328C1149.45 319.885 1147.87 321.144 1146.12 322.104C1144.37 323.043 1142.36 323.512 1140.1 323.512C1138.33 323.512 1136.76 323.224 1135.4 322.648C1134.05 322.051 1132.92 321.219 1132.01 320.152C1131.09 319.085 1130.4 317.795 1129.93 316.28C1129.48 314.765 1129.25 313.091 1129.25 311.256V290.584H1134.95V311.256C1134.95 313.709 1135.51 315.608 1136.61 316.952C1137.75 318.296 1139.46 318.968 1141.77 318.968C1143.45 318.968 1145.02 318.573 1146.47 317.784C1147.94 316.973 1149.3 315.864 1150.53 314.456V290.584H1156.23ZM1170.67 297.08C1171.69 294.861 1172.95 293.133 1174.45 291.896C1175.94 290.637 1177.76 290.008 1179.92 290.008C1180.6 290.008 1181.25 290.083 1181.87 290.232C1182.51 290.381 1183.08 290.616 1183.57 290.936L1183.15 295.192C1183.02 295.725 1182.7 295.992 1182.19 295.992C1181.89 295.992 1181.45 295.928 1180.88 295.8C1180.3 295.672 1179.65 295.608 1178.93 295.608C1177.9 295.608 1176.98 295.757 1176.17 296.056C1175.38 296.355 1174.67 296.803 1174.03 297.4C1173.41 297.976 1172.85 298.701 1172.33 299.576C1171.84 300.429 1171.4 301.411 1170.99 302.52V323H1165.26V290.584H1168.53C1169.14 290.584 1169.57 290.701 1169.81 290.936C1170.04 291.171 1170.2 291.576 1170.29 292.152L1170.67 297.08ZM1208.96 303.256C1208.96 301.933 1208.77 300.728 1208.38 299.64C1208.02 298.531 1207.48 297.581 1206.75 296.792C1206.05 295.981 1205.18 295.363 1204.16 294.936C1203.13 294.488 1201.97 294.264 1200.67 294.264C1197.94 294.264 1195.77 295.064 1194.17 296.664C1192.6 298.243 1191.61 300.44 1191.23 303.256H1208.96ZM1213.57 318.456C1212.86 319.309 1212.02 320.056 1211.04 320.696C1210.06 321.315 1209 321.827 1207.87 322.232C1206.76 322.637 1205.61 322.936 1204.41 323.128C1203.22 323.341 1202.04 323.448 1200.86 323.448C1198.62 323.448 1196.55 323.075 1194.65 322.328C1192.78 321.56 1191.14 320.451 1189.76 319C1188.39 317.528 1187.33 315.715 1186.56 313.56C1185.79 311.405 1185.41 308.931 1185.41 306.136C1185.41 303.875 1185.75 301.763 1186.43 299.8C1187.13 297.837 1188.14 296.141 1189.44 294.712C1190.74 293.261 1192.33 292.131 1194.21 291.32C1196.08 290.488 1198.2 290.072 1200.54 290.072C1202.48 290.072 1204.28 290.403 1205.92 291.064C1207.58 291.704 1209.01 292.643 1210.21 293.88C1211.42 295.096 1212.37 296.611 1213.05 298.424C1213.74 300.216 1214.08 302.264 1214.08 304.568C1214.08 305.464 1213.98 306.061 1213.79 306.36C1213.6 306.659 1213.24 306.808 1212.7 306.808H1191.04C1191.1 308.856 1191.38 310.637 1191.87 312.152C1192.38 313.667 1193.09 314.936 1193.98 315.96C1194.88 316.963 1195.94 317.72 1197.18 318.232C1198.42 318.723 1199.81 318.968 1201.34 318.968C1202.77 318.968 1204 318.808 1205.02 318.488C1206.07 318.147 1206.96 317.784 1207.71 317.4C1208.46 317.016 1209.08 316.664 1209.57 316.344C1210.08 316.003 1210.52 315.832 1210.88 315.832C1211.35 315.832 1211.71 316.013 1211.97 316.376L1213.57 318.456ZM1220.72 330.744C1220.55 330.595 1220.43 330.456 1220.37 330.328C1220.31 330.2 1220.27 330.04 1220.27 329.848C1220.27 329.699 1220.32 329.549 1220.4 329.4C1220.51 329.251 1220.63 329.112 1220.75 328.984C1220.97 328.749 1221.23 328.44 1221.55 328.056C1221.9 327.672 1222.24 327.213 1222.58 326.68C1222.92 326.168 1223.23 325.592 1223.51 324.952C1223.81 324.333 1224.02 323.672 1224.15 322.968C1224.08 322.989 1224.01 323 1223.92 323C1223.86 323 1223.79 323 1223.73 323C1222.62 323 1221.71 322.637 1221.01 321.912C1220.33 321.165 1219.99 320.216 1219.99 319.064C1219.99 318.061 1220.33 317.208 1221.01 316.504C1221.71 315.8 1222.64 315.448 1223.79 315.448C1224.43 315.448 1225 315.565 1225.49 315.8C1225.98 316.035 1226.39 316.365 1226.71 316.792C1227.05 317.197 1227.3 317.677 1227.47 318.232C1227.65 318.765 1227.73 319.352 1227.73 319.992C1227.73 320.952 1227.59 321.955 1227.31 323C1227.06 324.024 1226.66 325.037 1226.13 326.04C1225.62 327.064 1224.99 328.056 1224.24 329.016C1223.5 329.976 1222.64 330.861 1221.68 331.672L1220.72 330.744ZM514.104 377.952V395.552C511.8 397.216 509.336 398.464 506.712 399.296C504.109 400.107 501.251 400.512 498.136 400.512C494.445 400.512 491.117 399.947 488.152 398.816C485.187 397.664 482.648 396.064 480.536 394.016C478.445 391.947 476.835 389.472 475.704 386.592C474.573 383.712 474.008 380.544 474.008 377.088C474.008 373.589 474.552 370.4 475.64 367.52C476.749 364.64 478.317 362.176 480.344 360.128C482.371 358.059 484.835 356.459 487.736 355.328C490.637 354.197 493.88 353.632 497.464 353.632C499.277 353.632 500.963 353.771 502.52 354.048C504.077 354.304 505.517 354.688 506.84 355.2C508.163 355.691 509.389 356.299 510.52 357.024C511.651 357.728 512.707 358.528 513.688 359.424L511.928 362.24C511.651 362.667 511.288 362.944 510.84 363.072C510.413 363.179 509.933 363.072 509.4 362.752C508.888 362.453 508.301 362.091 507.64 361.664C506.979 361.237 506.168 360.832 505.208 360.448C504.269 360.043 503.149 359.701 501.848 359.424C500.568 359.147 499.043 359.008 497.272 359.008C494.691 359.008 492.355 359.435 490.264 360.288C488.173 361.12 486.392 362.325 484.92 363.904C483.448 365.461 482.317 367.36 481.528 369.6C480.739 371.819 480.344 374.315 480.344 377.088C480.344 379.968 480.749 382.549 481.56 384.832C482.392 387.093 483.565 389.024 485.08 390.624C486.616 392.203 488.472 393.408 490.648 394.24C492.824 395.072 495.267 395.488 497.976 395.488C500.109 395.488 501.997 395.253 503.64 394.784C505.304 394.293 506.925 393.621 508.504 392.768V382.688H501.368C500.963 382.688 500.632 382.571 500.376 382.336C500.141 382.101 500.024 381.813 500.024 381.472V377.952H514.104ZM527.17 374.08C528.194 371.861 529.453 370.133 530.946 368.896C532.439 367.637 534.263 367.008 536.418 367.008C537.101 367.008 537.751 367.083 538.37 367.232C539.01 367.381 539.575 367.616 540.066 367.936L539.65 372.192C539.522 372.725 539.202 372.992 538.69 372.992C538.391 372.992 537.954 372.928 537.378 372.8C536.802 372.672 536.151 372.608 535.426 372.608C534.402 372.608 533.485 372.757 532.674 373.056C531.885 373.355 531.17 373.803 530.53 374.4C529.911 374.976 529.346 375.701 528.834 376.576C528.343 377.429 527.895 378.411 527.49 379.52V400H521.762V367.584H525.026C525.645 367.584 526.071 367.701 526.306 367.936C526.541 368.171 526.701 368.576 526.786 369.152L527.17 374.08ZM551.091 367.584V400H545.395V367.584H551.091ZM552.307 357.408C552.307 357.963 552.189 358.485 551.955 358.976C551.741 359.445 551.443 359.872 551.059 360.256C550.696 360.619 550.259 360.907 549.747 361.12C549.256 361.333 548.733 361.44 548.179 361.44C547.624 361.44 547.101 361.333 546.611 361.12C546.141 360.907 545.725 360.619 545.363 360.256C545 359.872 544.712 359.445 544.499 358.976C544.285 358.485 544.179 357.963 544.179 357.408C544.179 356.853 544.285 356.331 544.499 355.84C544.712 355.328 545 354.891 545.363 354.528C545.725 354.144 546.141 353.845 546.611 353.632C547.101 353.419 547.624 353.312 548.179 353.312C548.733 353.312 549.256 353.419 549.747 353.632C550.259 353.845 550.696 354.144 551.059 354.528C551.443 354.891 551.741 355.328 551.955 355.84C552.189 356.331 552.307 356.853 552.307 357.408ZM581.57 375.296C580.503 373.867 579.351 372.875 578.114 372.32C576.876 371.744 575.49 371.456 573.954 371.456C570.946 371.456 568.631 372.533 567.01 374.688C565.388 376.843 564.578 379.915 564.578 383.904C564.578 386.016 564.759 387.829 565.122 389.344C565.484 390.837 566.018 392.075 566.722 393.056C567.426 394.016 568.29 394.72 569.314 395.168C570.338 395.616 571.5 395.84 572.802 395.84C574.679 395.84 576.311 395.413 577.698 394.56C579.106 393.707 580.396 392.501 581.57 390.944V375.296ZM587.266 352.864V400H583.874C583.063 400 582.551 399.605 582.338 398.816L581.826 394.88C580.439 396.544 578.86 397.888 577.09 398.912C575.319 399.936 573.271 400.448 570.946 400.448C569.09 400.448 567.404 400.096 565.89 399.392C564.375 398.667 563.084 397.611 562.018 396.224C560.951 394.837 560.13 393.109 559.554 391.04C558.978 388.971 558.69 386.592 558.69 383.904C558.69 381.515 559.01 379.296 559.65 377.248C560.29 375.179 561.207 373.387 562.402 371.872C563.596 370.357 565.058 369.173 566.786 368.32C568.535 367.445 570.498 367.008 572.674 367.008C574.658 367.008 576.354 367.349 577.762 368.032C579.191 368.693 580.46 369.621 581.57 370.816V352.864H587.266ZM615.142 372.928C614.886 373.397 614.491 373.632 613.958 373.632C613.638 373.632 613.275 373.515 612.87 373.28C612.465 373.045 611.963 372.789 611.366 372.512C610.79 372.213 610.097 371.947 609.286 371.712C608.475 371.456 607.515 371.328 606.406 371.328C605.446 371.328 604.582 371.456 603.814 371.712C603.046 371.947 602.385 372.277 601.83 372.704C601.297 373.131 600.881 373.632 600.582 374.208C600.305 374.763 600.166 375.371 600.166 376.032C600.166 376.864 600.401 377.557 600.87 378.112C601.361 378.667 602.001 379.147 602.79 379.552C603.579 379.957 604.475 380.32 605.478 380.64C606.481 380.939 607.505 381.269 608.55 381.632C609.617 381.973 610.651 382.357 611.654 382.784C612.657 383.211 613.553 383.744 614.342 384.384C615.131 385.024 615.761 385.813 616.23 386.752C616.721 387.669 616.966 388.779 616.966 390.08C616.966 391.573 616.699 392.96 616.166 394.24C615.633 395.499 614.843 396.597 613.798 397.536C612.753 398.453 611.473 399.179 609.958 399.712C608.443 400.245 606.694 400.512 604.71 400.512C602.449 400.512 600.401 400.149 598.566 399.424C596.731 398.677 595.174 397.728 593.894 396.576L595.238 394.4C595.409 394.123 595.611 393.909 595.846 393.76C596.081 393.611 596.379 393.536 596.742 393.536C597.126 393.536 597.531 393.685 597.958 393.984C598.385 394.283 598.897 394.613 599.494 394.976C600.113 395.339 600.859 395.669 601.734 395.968C602.609 396.267 603.697 396.416 604.998 396.416C606.107 396.416 607.078 396.277 607.91 396C608.742 395.701 609.435 395.307 609.99 394.816C610.545 394.325 610.95 393.76 611.206 393.12C611.483 392.48 611.622 391.797 611.622 391.072C611.622 390.176 611.377 389.44 610.886 388.864C610.417 388.267 609.787 387.765 608.998 387.36C608.209 386.933 607.302 386.571 606.278 386.272C605.275 385.952 604.241 385.621 603.174 385.28C602.129 384.939 601.094 384.555 600.07 384.128C599.067 383.68 598.171 383.125 597.382 382.464C596.593 381.803 595.953 380.992 595.462 380.032C594.993 379.051 594.758 377.867 594.758 376.48C594.758 375.243 595.014 374.059 595.526 372.928C596.038 371.776 596.785 370.773 597.766 369.92C598.747 369.045 599.953 368.352 601.382 367.84C602.811 367.328 604.443 367.072 606.278 367.072C608.411 367.072 610.321 367.413 612.006 368.096C613.713 368.757 615.185 369.675 616.422 370.848L615.142 372.928ZM657.893 385.408C655.269 385.493 653.029 385.707 651.173 386.048C649.338 386.368 647.834 386.795 646.661 387.328C645.509 387.861 644.666 388.491 644.133 389.216C643.621 389.941 643.365 390.752 643.365 391.648C643.365 392.501 643.503 393.237 643.781 393.856C644.058 394.475 644.431 394.987 644.901 395.392C645.391 395.776 645.957 396.064 646.597 396.256C647.258 396.427 647.962 396.512 648.709 396.512C649.711 396.512 650.629 396.416 651.461 396.224C652.293 396.011 653.071 395.712 653.797 395.328C654.543 394.944 655.247 394.485 655.909 393.952C656.591 393.419 657.253 392.811 657.893 392.128V385.408ZM639.493 372.16C641.285 370.432 643.215 369.141 645.285 368.288C647.354 367.435 649.647 367.008 652.165 367.008C653.978 367.008 655.589 367.307 656.997 367.904C658.405 368.501 659.589 369.333 660.549 370.4C661.509 371.467 662.234 372.757 662.725 374.272C663.215 375.787 663.461 377.451 663.461 379.264V400H660.933C660.378 400 659.951 399.915 659.653 399.744C659.354 399.552 659.119 399.189 658.949 398.656L658.309 395.584C657.455 396.373 656.623 397.077 655.812 397.696C655.002 398.293 654.149 398.805 653.253 399.232C652.357 399.637 651.397 399.947 650.373 400.16C649.37 400.395 648.25 400.512 647.013 400.512C645.754 400.512 644.57 400.341 643.461 400C642.351 399.637 641.381 399.104 640.549 398.4C639.738 397.696 639.087 396.811 638.597 395.744C638.127 394.656 637.893 393.376 637.893 391.904C637.893 390.624 638.245 389.397 638.949 388.224C639.653 387.029 640.794 385.973 642.373 385.056C643.951 384.139 646.01 383.392 648.549 382.816C651.087 382.219 654.202 381.877 657.893 381.792V379.264C657.893 376.747 657.349 374.848 656.261 373.568C655.173 372.267 653.583 371.616 651.493 371.616C650.085 371.616 648.901 371.797 647.941 372.16C647.002 372.501 646.181 372.896 645.477 373.344C644.794 373.771 644.197 374.165 643.685 374.528C643.194 374.869 642.703 375.04 642.213 375.04C641.829 375.04 641.498 374.944 641.221 374.752C640.943 374.539 640.709 374.283 640.516 373.984L639.493 372.16ZM677.513 372.288C678.217 371.499 678.964 370.784 679.753 370.144C680.542 369.504 681.374 368.96 682.249 368.512C683.145 368.043 684.084 367.691 685.065 367.456C686.068 367.2 687.145 367.072 688.297 367.072C690.068 367.072 691.625 367.371 692.969 367.968C694.334 368.544 695.465 369.376 696.361 370.464C697.278 371.531 697.972 372.821 698.441 374.336C698.91 375.851 699.145 377.525 699.145 379.36V400H693.417V379.36C693.417 376.907 692.852 375.008 691.721 373.664C690.612 372.299 688.916 371.616 686.633 371.616C684.948 371.616 683.369 372.021 681.897 372.832C680.446 373.643 679.102 374.741 677.865 376.128V400H672.137V367.584H675.561C676.372 367.584 676.873 367.979 677.065 368.768L677.513 372.288ZM728.945 375.296C727.878 373.867 726.726 372.875 725.489 372.32C724.251 371.744 722.865 371.456 721.329 371.456C718.321 371.456 716.006 372.533 714.385 374.688C712.763 376.843 711.953 379.915 711.953 383.904C711.953 386.016 712.134 387.829 712.497 389.344C712.859 390.837 713.393 392.075 714.097 393.056C714.801 394.016 715.665 394.72 716.689 395.168C717.713 395.616 718.875 395.84 720.177 395.84C722.054 395.84 723.686 395.413 725.073 394.56C726.481 393.707 727.771 392.501 728.945 390.944V375.296ZM734.641 352.864V400H731.249C730.438 400 729.926 399.605 729.713 398.816L729.201 394.88C727.814 396.544 726.235 397.888 724.465 398.912C722.694 399.936 720.646 400.448 718.321 400.448C716.465 400.448 714.779 400.096 713.265 399.392C711.75 398.667 710.459 397.611 709.393 396.224C708.326 394.837 707.505 393.109 706.929 391.04C706.353 388.971 706.065 386.592 706.065 383.904C706.065 381.515 706.385 379.296 707.025 377.248C707.665 375.179 708.582 373.387 709.777 371.872C710.971 370.357 712.433 369.173 714.161 368.32C715.91 367.445 717.873 367.008 720.049 367.008C722.033 367.008 723.729 367.349 725.137 368.032C726.566 368.693 727.835 369.621 728.945 370.816V352.864H734.641ZM774.06 376.352C775.852 376.352 777.431 376.139 778.796 375.712C780.183 375.264 781.335 374.645 782.252 373.856C783.191 373.045 783.895 372.085 784.364 370.976C784.833 369.867 785.068 368.64 785.068 367.296C785.068 364.565 784.172 362.507 782.38 361.12C780.588 359.733 777.9 359.04 774.316 359.04H767.532V376.352H774.06ZM795.244 400H789.74C788.609 400 787.777 399.563 787.244 398.688L775.34 382.304C774.977 381.792 774.583 381.429 774.156 381.216C773.751 380.981 773.111 380.864 772.236 380.864H767.532V400H761.356V354.144H774.316C777.217 354.144 779.724 354.443 781.836 355.04C783.948 355.616 785.687 356.459 787.052 357.568C788.439 358.677 789.463 360.021 790.124 361.6C790.785 363.157 791.116 364.907 791.116 366.848C791.116 368.469 790.86 369.984 790.348 371.392C789.836 372.8 789.089 374.069 788.108 375.2C787.148 376.309 785.964 377.259 784.556 378.048C783.169 378.837 781.591 379.435 779.82 379.84C780.609 380.288 781.292 380.939 781.868 381.792L795.244 400ZM819.771 380.256C819.771 378.933 819.579 377.728 819.195 376.64C818.832 375.531 818.288 374.581 817.563 373.792C816.859 372.981 815.995 372.363 814.971 371.936C813.947 371.488 812.784 371.264 811.483 371.264C808.752 371.264 806.587 372.064 804.987 373.664C803.408 375.243 802.427 377.44 802.043 380.256H819.771ZM824.379 395.456C823.675 396.309 822.832 397.056 821.851 397.696C820.869 398.315 819.813 398.827 818.683 399.232C817.573 399.637 816.421 399.936 815.227 400.128C814.032 400.341 812.848 400.448 811.675 400.448C809.435 400.448 807.365 400.075 805.467 399.328C803.589 398.56 801.957 397.451 800.571 396C799.205 394.528 798.139 392.715 797.371 390.56C796.603 388.405 796.219 385.931 796.219 383.136C796.219 380.875 796.56 378.763 797.243 376.8C797.947 374.837 798.949 373.141 800.251 371.712C801.552 370.261 803.141 369.131 805.019 368.32C806.896 367.488 809.008 367.072 811.355 367.072C813.296 367.072 815.088 367.403 816.731 368.064C818.395 368.704 819.824 369.643 821.019 370.88C822.235 372.096 823.184 373.611 823.867 375.424C824.549 377.216 824.891 379.264 824.891 381.568C824.891 382.464 824.795 383.061 824.603 383.36C824.411 383.659 824.048 383.808 823.515 383.808H801.851C801.915 385.856 802.192 387.637 802.683 389.152C803.195 390.667 803.899 391.936 804.795 392.96C805.691 393.963 806.757 394.72 807.995 395.232C809.232 395.723 810.619 395.968 812.155 395.968C813.584 395.968 814.811 395.808 815.835 395.488C816.88 395.147 817.776 394.784 818.523 394.4C819.269 394.016 819.888 393.664 820.379 393.344C820.891 393.003 821.328 392.832 821.691 392.832C822.16 392.832 822.523 393.013 822.779 393.376L824.379 395.456ZM837.263 372.288C837.967 371.499 838.714 370.784 839.503 370.144C840.292 369.504 841.124 368.96 841.999 368.512C842.895 368.043 843.834 367.691 844.815 367.456C845.818 367.2 846.895 367.072 848.047 367.072C849.818 367.072 851.375 367.371 852.719 367.968C854.084 368.544 855.215 369.376 856.111 370.464C857.028 371.531 857.722 372.821 858.191 374.336C858.66 375.851 858.895 377.525 858.895 379.36V400H853.167V379.36C853.167 376.907 852.602 375.008 851.471 373.664C850.362 372.299 848.666 371.616 846.383 371.616C844.698 371.616 843.119 372.021 841.647 372.832C840.196 373.643 838.852 374.741 837.615 376.128V400H831.887V367.584H835.311C836.122 367.584 836.623 367.979 836.815 368.768L837.263 372.288ZM889.271 380.256C889.271 378.933 889.079 377.728 888.695 376.64C888.332 375.531 887.788 374.581 887.063 373.792C886.359 372.981 885.495 372.363 884.471 371.936C883.447 371.488 882.284 371.264 880.983 371.264C878.252 371.264 876.087 372.064 874.487 373.664C872.908 375.243 871.927 377.44 871.543 380.256H889.271ZM893.879 395.456C893.175 396.309 892.332 397.056 891.351 397.696C890.369 398.315 889.313 398.827 888.183 399.232C887.073 399.637 885.921 399.936 884.727 400.128C883.532 400.341 882.348 400.448 881.175 400.448C878.935 400.448 876.865 400.075 874.967 399.328C873.089 398.56 871.457 397.451 870.071 396C868.705 394.528 867.639 392.715 866.871 390.56C866.103 388.405 865.719 385.931 865.719 383.136C865.719 380.875 866.06 378.763 866.743 376.8C867.447 374.837 868.449 373.141 869.751 371.712C871.052 370.261 872.641 369.131 874.519 368.32C876.396 367.488 878.508 367.072 880.855 367.072C882.796 367.072 884.588 367.403 886.231 368.064C887.895 368.704 889.324 369.643 890.519 370.88C891.735 372.096 892.684 373.611 893.367 375.424C894.049 377.216 894.391 379.264 894.391 381.568C894.391 382.464 894.295 383.061 894.103 383.36C893.911 383.659 893.548 383.808 893.015 383.808H871.351C871.415 385.856 871.692 387.637 872.183 389.152C872.695 390.667 873.399 391.936 874.295 392.96C875.191 393.963 876.257 394.72 877.495 395.232C878.732 395.723 880.119 395.968 881.655 395.968C883.084 395.968 884.311 395.808 885.335 395.488C886.38 395.147 887.276 394.784 888.023 394.4C888.769 394.016 889.388 393.664 889.879 393.344C890.391 393.003 890.828 392.832 891.191 392.832C891.66 392.832 892.023 393.013 892.279 393.376L893.879 395.456ZM945.779 367.584L935.283 400H930.771C930.216 400 929.832 399.637 929.618 398.912L922.451 376.928C922.28 376.437 922.141 375.947 922.035 375.456C921.928 374.944 921.821 374.443 921.715 373.952C921.608 374.443 921.501 374.944 921.395 375.456C921.288 375.947 921.149 376.448 920.979 376.96L913.683 398.912C913.491 399.637 913.064 400 912.403 400H908.115L897.618 367.584H902.099C902.547 367.584 902.92 367.701 903.219 367.936C903.539 368.171 903.752 368.448 903.859 368.768L910.067 389.632C910.429 391.168 910.717 392.619 910.931 393.984C911.123 393.28 911.315 392.565 911.507 391.84C911.72 391.115 911.944 390.379 912.179 389.632L919.027 368.64C919.133 368.32 919.315 368.053 919.571 367.84C919.848 367.627 920.179 367.52 920.563 367.52H923.059C923.485 367.52 923.837 367.627 924.115 367.84C924.392 368.053 924.584 368.32 924.691 368.64L931.379 389.632C931.613 390.379 931.827 391.115 932.019 391.84C932.211 392.565 932.392 393.28 932.562 393.984C932.669 393.28 932.797 392.576 932.947 391.872C933.117 391.147 933.299 390.4 933.491 389.632L939.827 368.768C939.933 368.427 940.136 368.149 940.435 367.936C940.733 367.701 941.085 367.584 941.491 367.584H945.779ZM968.518 385.408C965.894 385.493 963.654 385.707 961.798 386.048C959.963 386.368 958.459 386.795 957.286 387.328C956.134 387.861 955.291 388.491 954.758 389.216C954.246 389.941 953.99 390.752 953.99 391.648C953.99 392.501 954.128 393.237 954.406 393.856C954.683 394.475 955.056 394.987 955.526 395.392C956.016 395.776 956.582 396.064 957.222 396.256C957.883 396.427 958.587 396.512 959.334 396.512C960.336 396.512 961.254 396.416 962.086 396.224C962.918 396.011 963.696 395.712 964.422 395.328C965.168 394.944 965.872 394.485 966.534 393.952C967.216 393.419 967.878 392.811 968.518 392.128V385.408ZM950.118 372.16C951.91 370.432 953.84 369.141 955.91 368.288C957.979 367.435 960.272 367.008 962.79 367.008C964.603 367.008 966.214 367.307 967.622 367.904C969.03 368.501 970.214 369.333 971.174 370.4C972.134 371.467 972.859 372.757 973.35 374.272C973.84 375.787 974.086 377.451 974.086 379.264V400H971.558C971.003 400 970.576 399.915 970.278 399.744C969.979 399.552 969.744 399.189 969.574 398.656L968.934 395.584C968.08 396.373 967.248 397.077 966.438 397.696C965.627 398.293 964.774 398.805 963.878 399.232C962.982 399.637 962.022 399.947 960.998 400.16C959.995 400.395 958.875 400.512 957.638 400.512C956.379 400.512 955.195 400.341 954.086 400C952.976 399.637 952.006 399.104 951.174 398.4C950.363 397.696 949.712 396.811 949.222 395.744C948.752 394.656 948.518 393.376 948.518 391.904C948.518 390.624 948.87 389.397 949.574 388.224C950.278 387.029 951.419 385.973 952.998 385.056C954.576 384.139 956.635 383.392 959.174 382.816C961.712 382.219 964.827 381.877 968.518 381.792V379.264C968.518 376.747 967.974 374.848 966.886 373.568C965.798 372.267 964.208 371.616 962.118 371.616C960.71 371.616 959.526 371.797 958.566 372.16C957.627 372.501 956.806 372.896 956.102 373.344C955.419 373.771 954.822 374.165 954.31 374.528C953.819 374.869 953.328 375.04 952.838 375.04C952.454 375.04 952.123 374.944 951.846 374.752C951.568 374.539 951.334 374.283 951.141 373.984L950.118 372.16ZM988.49 392.192C989.535 393.6 990.677 394.592 991.914 395.168C993.173 395.744 994.549 396.032 996.042 396.032C999.093 396.032 1001.43 394.955 1003.05 392.8C1004.67 390.645 1005.48 387.435 1005.48 383.168C1005.48 379.2 1004.76 376.288 1003.31 374.432C1001.88 372.555 999.829 371.616 997.162 371.616C995.306 371.616 993.685 372.043 992.298 372.896C990.933 373.749 989.663 374.955 988.49 376.512V392.192ZM988.49 372.256C989.855 370.677 991.391 369.419 993.098 368.48C994.826 367.541 996.81 367.072 999.05 367.072C1000.95 367.072 1002.66 367.435 1004.17 368.16C1005.71 368.885 1007.01 369.941 1008.07 371.328C1009.14 372.693 1009.95 374.357 1010.51 376.32C1011.08 378.283 1011.37 380.491 1011.37 382.944C1011.37 385.568 1011.05 387.957 1010.41 390.112C1009.77 392.267 1008.84 394.112 1007.63 395.648C1006.43 397.163 1004.97 398.347 1003.24 399.2C1001.51 400.032 999.573 400.448 997.418 400.448C995.285 400.448 993.482 400.053 992.01 399.264C990.559 398.453 989.29 397.312 988.202 395.84L987.914 398.784C987.743 399.595 987.253 400 986.442 400H982.762V352.864H988.49V372.256ZM1024.46 352.864V400H1018.77V352.864H1024.46ZM1055.4 380.256C1055.4 378.933 1055.2 377.728 1054.82 376.64C1054.46 375.531 1053.91 374.581 1053.19 373.792C1052.48 372.981 1051.62 372.363 1050.6 371.936C1049.57 371.488 1048.41 371.264 1047.11 371.264C1044.38 371.264 1042.21 372.064 1040.61 373.664C1039.03 375.243 1038.05 377.44 1037.67 380.256H1055.4ZM1060 395.456C1059.3 396.309 1058.46 397.056 1057.48 397.696C1056.49 398.315 1055.44 398.827 1054.31 399.232C1053.2 399.637 1052.05 399.936 1050.85 400.128C1049.66 400.341 1048.47 400.448 1047.3 400.448C1045.06 400.448 1042.99 400.075 1041.09 399.328C1039.21 398.56 1037.58 397.451 1036.2 396C1034.83 394.528 1033.76 392.715 1033 390.56C1032.23 388.405 1031.84 385.931 1031.84 383.136C1031.84 380.875 1032.18 378.763 1032.87 376.8C1033.57 374.837 1034.57 373.141 1035.88 371.712C1037.18 370.261 1038.77 369.131 1040.64 368.32C1042.52 367.488 1044.63 367.072 1046.98 367.072C1048.92 367.072 1050.71 367.403 1052.36 368.064C1054.02 368.704 1055.45 369.643 1056.64 370.88C1057.86 372.096 1058.81 373.611 1059.49 375.424C1060.17 377.216 1060.52 379.264 1060.52 381.568C1060.52 382.464 1060.42 383.061 1060.23 383.36C1060.04 383.659 1059.67 383.808 1059.14 383.808H1037.48C1037.54 385.856 1037.82 387.637 1038.31 389.152C1038.82 390.667 1039.52 391.936 1040.42 392.96C1041.32 393.963 1042.38 394.72 1043.62 395.232C1044.86 395.723 1046.24 395.968 1047.78 395.968C1049.21 395.968 1050.44 395.808 1051.46 395.488C1052.5 395.147 1053.4 394.784 1054.15 394.4C1054.89 394.016 1055.51 393.664 1056 393.344C1056.52 393.003 1056.95 392.832 1057.32 392.832C1057.78 392.832 1058.15 393.013 1058.4 393.376L1060 395.456ZM1086.39 372.928C1086.14 373.397 1085.74 373.632 1085.21 373.632C1084.89 373.632 1084.53 373.515 1084.12 373.28C1083.71 373.045 1083.21 372.789 1082.62 372.512C1082.04 372.213 1081.35 371.947 1080.54 371.712C1079.73 371.456 1078.77 371.328 1077.66 371.328C1076.7 371.328 1075.83 371.456 1075.06 371.712C1074.3 371.947 1073.63 372.277 1073.08 372.704C1072.55 373.131 1072.13 373.632 1071.83 374.208C1071.55 374.763 1071.42 375.371 1071.42 376.032C1071.42 376.864 1071.65 377.557 1072.12 378.112C1072.61 378.667 1073.25 379.147 1074.04 379.552C1074.83 379.957 1075.73 380.32 1076.73 380.64C1077.73 380.939 1078.75 381.269 1079.8 381.632C1080.87 381.973 1081.9 382.357 1082.9 382.784C1083.91 383.211 1084.8 383.744 1085.59 384.384C1086.38 385.024 1087.01 385.813 1087.48 386.752C1087.97 387.669 1088.22 388.779 1088.22 390.08C1088.22 391.573 1087.95 392.96 1087.42 394.24C1086.88 395.499 1086.09 396.597 1085.05 397.536C1084 398.453 1082.72 399.179 1081.21 399.712C1079.69 400.245 1077.94 400.512 1075.96 400.512C1073.7 400.512 1071.65 400.149 1069.82 399.424C1067.98 398.677 1066.42 397.728 1065.14 396.576L1066.49 394.4C1066.66 394.123 1066.86 393.909 1067.1 393.76C1067.33 393.611 1067.63 393.536 1067.99 393.536C1068.38 393.536 1068.78 393.685 1069.21 393.984C1069.63 394.283 1070.15 394.613 1070.74 394.976C1071.36 395.339 1072.11 395.669 1072.98 395.968C1073.86 396.267 1074.95 396.416 1076.25 396.416C1077.36 396.416 1078.33 396.277 1079.16 396C1079.99 395.701 1080.69 395.307 1081.24 394.816C1081.79 394.325 1082.2 393.76 1082.46 393.12C1082.73 392.48 1082.87 391.797 1082.87 391.072C1082.87 390.176 1082.63 389.44 1082.14 388.864C1081.67 388.267 1081.04 387.765 1080.25 387.36C1079.46 386.933 1078.55 386.571 1077.53 386.272C1076.53 385.952 1075.49 385.621 1074.42 385.28C1073.38 384.939 1072.34 384.555 1071.32 384.128C1070.32 383.68 1069.42 383.125 1068.63 382.464C1067.84 381.803 1067.2 380.992 1066.71 380.032C1066.24 379.051 1066.01 377.867 1066.01 376.48C1066.01 375.243 1066.26 374.059 1066.78 372.928C1067.29 371.776 1068.03 370.773 1069.02 369.92C1070 369.045 1071.2 368.352 1072.63 367.84C1074.06 367.328 1075.69 367.072 1077.53 367.072C1079.66 367.072 1081.57 367.413 1083.26 368.096C1084.96 368.757 1086.43 369.675 1087.67 370.848L1086.39 372.928Z" fill="white"/>
<circle cx="206" cy="228" r="200" stroke="white" stroke-width="11"/>
<path fill-rule="evenodd" clip-rule="evenodd" d="M428 228C428 338.457 338.457 428 228 428C117.543 428 28 338.457 28 228C28 117.543 117.543 28 228 28C338.457 28 428 117.543 428 228ZM220.338 73C232.208 73.0001 238.501 78.7679 241.835 88.2767C243.537 93.1334 241.844 96.7815 239.928 100.91C239.018 102.87 238.058 104.938 237.387 107.295C237.362 107.385 237.335 107.48 237.306 107.58C236.788 109.385 235.808 112.796 236.243 116.024C236.678 119.249 237.531 120.352 239.209 122.522C239.963 123.497 240.883 124.687 242.007 126.383L244.052 129.467L241.835 129.05C230.611 126.941 227.74 126.682 219.187 127.008C214.281 127.195 208.325 127.805 205.951 128.364C195.518 130.817 185.746 135.553 177.521 142.143L172.405 146.242C172.405 146.242 148.19 139.718 158.548 119.765C164.622 108.065 172.081 110.086 179.608 112.126C184.918 113.564 190.262 115.012 195.178 111.659C199.725 108.558 199.4 103.781 199.048 98.5926C198.783 94.6874 198.501 90.5492 200.27 86.7174C203.147 80.4825 210.053 72.9999 220.338 73ZM238.932 133.018C248.115 134.956 248.184 134.996 247.718 138.182C247.506 139.632 245.862 143.614 244.063 147.029C240.188 154.393 237.138 162.362 236.243 167.463L235.597 171.147L232.14 170.636C219.998 168.84 206.345 171.751 193.096 178.96C190.3 180.482 187.81 181.642 187.564 181.538C186.808 181.217 178.091 170.257 176.109 167.137C174.208 164.142 173.16 159.663 173.153 154.502C173.149 151.633 174.314 150.168 180.434 145.352C189.481 138.231 202.466 132.936 214.296 131.545C219.459 130.938 232.872 131.739 238.932 133.018ZM233.032 175.399C234.889 175.981 235.175 176.383 236.093 179.705C236.765 182.134 237.772 184.07 239.08 185.443C240.166 186.584 241.055 187.712 241.055 187.95C241.055 188.189 238.635 192.177 235.678 196.813C228.732 207.699 221.806 219.73 217.001 229.251L213.177 236.827L212.46 232.159C210.379 218.611 204.645 205.52 194.488 191.122L190.448 185.396L195.178 182.812C201.202 179.521 209.625 176.416 215.159 175.446C217.533 175.029 219.863 174.587 220.338 174.464C221.861 174.067 230.914 174.734 233.032 175.399ZM273.642 187.95C275.804 188.921 278.952 187.485 282.61 185.815C288.204 183.262 294.991 180.165 301.265 184.302C312.199 191.511 312.199 207.182 301.265 211.59C297.815 212.981 297.468 216.985 297.125 220.957C296.96 222.862 296.795 224.76 296.289 226.359C294.602 231.69 293.976 232.121 291.278 229.817C284.588 224.103 272.093 216.585 263.786 213.275C255.335 209.908 244.714 207.285 239.109 207.182L239.023 207.18H239.023C237.203 207.146 236.065 207.125 235.693 206.581C235.073 205.674 236.577 203.314 240.588 197.024L240.701 196.845C244.004 191.665 247.565 185.626 247.565 185.626C247.565 185.626 251.018 179.552 254.652 178.067C257.079 177.075 258.775 176.671 261.27 177.443C267.187 179.275 268.535 181.734 269.749 183.948C270.601 185.503 271.387 186.938 273.642 187.95ZM145.025 191.122C148.151 189.954 150.109 187.458 152.092 184.928C155.177 180.994 158.324 176.979 166.03 177.755C181.682 179.331 172.104 203.116 172.104 203.116L164.427 204.79C146.851 208.62 131.835 216.209 122.063 226.197L118.017 230.332C118.017 230.332 117.05 224.25 116.539 221.714C115.497 216.541 115.125 216.125 111.461 212.027L111.072 211.592C104.506 204.241 101.577 194.279 111.072 185.396C116.774 180.062 121.112 183.137 126.147 186.706C131.107 190.222 136.743 194.217 145.025 191.122ZM178.23 213.305C182.535 220.245 183.785 222.948 184.588 227.053L184.63 227.27L184.698 227.615L184.698 227.615L184.698 227.615C185.242 230.383 185.513 231.76 184.953 232.544C184.397 233.322 183.025 233.515 180.291 233.9H180.291C180.11 233.925 179.923 233.952 179.731 233.979C164.514 236.136 150.836 243.563 142.634 254.122C140.02 257.487 134.568 266.854 133.832 269.246C133.546 270.179 126.268 264.275 124.054 261.313C120.386 256.406 118.809 251.687 118.128 243.575C117.767 239.276 117.829 238.952 119.558 236.032C123.409 229.528 131.287 222.715 140.636 217.804C149.409 213.194 166.033 208.009 172.415 207.893C174.842 207.849 174.852 207.858 178.23 213.305ZM245.371 212.552C256.304 214.575 266.792 218.71 277.238 225.115C281.793 227.909 290.545 234.379 290.545 234.954C290.545 235.049 289.833 236.496 288.963 238.168C287.522 240.936 287.382 241.768 287.405 247.444C287.425 252.487 287.715 254.573 288.922 258.356C289.742 260.928 290.365 263.093 290.306 263.168C290.247 263.242 287.43 262.064 284.046 260.549C263.575 251.382 239.35 246.723 220.338 248.297C216.698 248.598 213.633 248.762 213.526 248.66C213.141 248.297 218.04 236.568 221.172 230.355C222.929 226.868 225.977 221.22 227.946 217.803L231.524 211.59L235.858 211.592C238.241 211.593 242.522 212.025 245.371 212.552ZM185.812 240.429C185.817 246.338 190.895 250.813 199.333 252.346C200.283 252.519 202.028 252.831 203.21 253.04L205.36 253.421L202.216 257.551C194.537 267.638 190.603 282.411 192.089 295.575C192.424 298.548 192.592 301.099 192.46 301.241C192.329 301.384 191.102 300.667 189.734 299.65C184.009 295.387 169.299 287.521 151.569 279.24C143.583 275.51 137.468 272.194 137.479 271.598C137.499 270.472 142.369 261.584 144.817 258.208C150.058 250.98 159.323 244.26 168.546 240.996C172.721 239.518 180.357 237.92 183.652 237.835L185.81 237.779L185.812 240.429ZM250.262 254.579C263.219 257.216 275.465 261.204 286.243 266.296L291.213 268.644L290.937 272.193C290.591 276.627 288.925 280.571 283.87 288.917L279.899 295.471L274.72 293.372C265.413 289.598 258.601 288.208 247.612 287.84C236.775 287.476 231.073 288.199 221.685 291.127C216.422 292.768 205.342 298.207 200.721 301.417C199.269 302.425 197.929 303.25 197.741 303.25C196.932 303.25 195.989 295.539 196.025 289.221C196.073 280.863 197.43 274.742 200.785 267.755C203.114 262.904 208.374 255.899 210.757 254.475C213.012 253.128 217.041 252.832 230.409 253.033C240.966 253.191 244.984 253.504 250.262 254.579ZM253.031 292.037C259.506 292.776 268.151 295.081 273.82 297.581C276.117 298.593 278.121 299.557 278.274 299.723C278.41 299.87 277.882 304.849 277.456 308.866L277.456 308.867L277.376 309.625L277.309 310.257C276.561 317.362 276.572 321.832 276.59 328.253C276.592 329.267 276.595 330.329 276.595 331.457C276.595 332.341 276.608 333.386 276.62 334.374L276.62 334.376V334.378V334.379C276.641 336.202 276.661 337.832 276.595 337.903C276.567 337.934 276.397 337.801 276.109 337.576C275.369 336.998 273.845 335.809 271.916 335.199C269.208 334.343 266.793 333.288 264.379 332.235L264.379 332.235L264.379 332.235L264.378 332.235C258.839 329.817 253.311 327.404 244.293 327.404C236.471 327.404 230.544 330.076 225.078 332.539L225.078 332.539L225.077 332.539L225.077 332.54C222.904 333.519 220.803 334.466 218.685 335.199C216.895 335.818 215.331 337.054 214.493 337.716C214.153 337.985 213.932 338.159 213.864 338.161C213.626 338.165 213.432 336.514 213.432 334.493C213.432 326.889 210.237 319.441 203.744 311.908L199.699 307.214L204.808 303.938C219.829 294.302 236.606 290.162 253.031 292.037ZM264.435 336.57C268.938 337.951 269.828 338.338 273.132 339.777L273.358 339.875C275.06 340.617 277.309 343.259 277.309 343.259V349.714C277.309 356.3 275.533 368.487 273.358 376.828L272.3 380.881C272.3 380.881 256.057 369.854 245.157 369.805C233.869 369.755 217.496 381.205 217.496 381.205L216.55 379.224C214.757 375.466 213.435 366.282 213.051 354.914L212.68 343.912L214.476 342.905C214.715 342.772 214.967 342.628 215.237 342.475L215.237 342.475C217.562 341.156 221.14 339.126 227.605 336.57C228.019 336.406 228.439 336.236 228.867 336.063C232.886 334.439 237.614 332.528 245.157 332.528C252.813 332.528 255.736 333.566 259.917 335.051C261.236 335.519 262.679 336.031 264.435 336.57ZM281.845 302.613C281.845 302.613 280 311.991 280 319.5C280 325.735 280.966 335.349 280.966 335.349C280.966 335.349 315.5 310.776 314.646 307.29C313.792 303.804 312.01 297.314 304.396 292.637C298.811 289.207 289.752 289.207 289.752 289.207C289.752 289.207 289.543 293.73 287.702 296.689C285.947 299.51 281.845 302.613 281.845 302.613ZM306.058 288.933C303.124 287.516 298.664 286.947 295.557 286.55C293.475 286.285 292 286.097 292 285.783C292 285.358 293.766 282.22 295.453 279.224L295.453 279.223L295.454 279.222C296.875 276.696 298.24 274.271 298.443 273.657C298.886 272.313 307.849 271.825 313.087 274.28C317.607 276.399 323.437 281.5 323.437 282.822C323.437 284.143 317.874 303.671 317.187 303.242C317.029 303.143 316.727 302.514 316.271 301.561L316.27 301.561C314.74 298.368 311.471 291.549 306.058 288.933ZM299 270.026C299 270.026 307.857 268.155 313.058 270.026C318.608 272.023 324.772 280.003 324.772 280.003C324.772 280.003 334.161 273.705 333.266 268.466C332.805 265.774 332.094 262.854 327.115 261.919C326.109 261.73 325.273 261.615 324.557 261.517C321.731 261.131 320.779 261 318.622 257.555C318.422 257.236 318.223 256.904 318.018 256.565C316.427 253.92 314.575 250.841 310.422 250.072C306.951 249.429 304.272 253.19 302.807 257.555C301.19 262.378 299 270.026 299 270.026Z" fill="white"/>
</svg>
